<svg width="27" height="25" viewBox="0 0 27 25" fill="none" xmlns="http://www.w3.org/2000/svg">
<path d="M15.7604 19.5733C15.1613 19.5733 14.6757 20.016 14.6757 20.5621C14.6757 21.1082 15.1613 21.5509 15.7604 21.5509H21.184C22.3822 21.5509 23.3535 20.6655 23.3535 19.5733V5.73003C23.3535 4.63783 22.3822 3.75242 21.184 3.75242H15.7604C15.1613 3.75242 14.6757 4.19512 14.6757 4.74123C14.6757 5.28733 15.1613 5.73003 15.7604 5.73003H21.184V19.5733H15.7604Z" fill="#F4F4F4"/>
<path d="M17.6192 13.3444C17.7197 13.2511 17.7958 13.1441 17.8475 13.0302C17.9002 12.9144 17.9294 12.7876 17.9299 12.6546L17.9299 12.6517L17.9299 12.6487C17.929 12.3966 17.8231 12.1448 17.6121 11.9525L13.2732 7.99725C12.8496 7.6111 12.1628 7.6111 11.7392 7.99725C11.3156 8.3834 11.3156 9.00948 11.7392 9.39563L14.2264 11.6629H3.8284C3.22932 11.6629 2.74367 12.1056 2.74367 12.6517C2.74367 13.1978 3.22932 13.6405 3.8284 13.6405H14.2264L11.7392 15.9077C11.3156 16.2938 11.3156 16.9199 11.7392 17.3061C12.1628 17.6922 12.8496 17.6922 13.2732 17.3061L17.6114 13.3515L17.6192 13.3444Z" fill="#F4F4F4"/>
</svg>
