<svg width="27" height="25" viewBox="0 0 27 25" fill="none" xmlns="http://www.w3.org/2000/svg">
<path d="M14.451 3.17994C14.8746 2.79379 15.5614 2.79379 15.9851 3.17994L19.2392 6.14635C19.6628 6.5325 19.6628 7.15858 19.2392 7.54473L15.9851 10.5111C15.5614 10.8973 14.8746 10.8973 14.451 10.5111C14.0274 10.125 14.0274 9.49892 14.451 9.11276L15.8535 7.83435H14.1333C10.285 7.83435 7.08258 10.7536 7.08258 14.2616C7.08258 17.7696 10.285 20.6888 14.1333 20.6888C17.9816 20.6888 21.184 17.7696 21.184 14.2616C21.184 13.7155 21.6697 13.2728 22.2688 13.2728C22.8678 13.2728 23.3535 13.7155 23.3535 14.2616C23.3535 18.8618 19.1798 22.6664 14.1333 22.6664C9.08685 22.6664 4.91313 18.8618 4.91313 14.2616C4.91313 9.66137 9.08685 5.85674 14.1333 5.85674H15.8535L14.451 4.57832C14.0274 4.19217 14.0274 3.56609 14.451 3.17994Z" fill="#F4F4F4"/>
</svg>
