<svg width="27" height="25" viewBox="0 0 27 25" fill="none" xmlns="http://www.w3.org/2000/svg">
<g clip-path="url(#clip0_6_44)">
<path d="M3.13611 9.98656C2.72468 9.58962 2.74415 8.96379 3.1796 8.58875L7.63978 4.74726C8.07524 4.37221 8.76177 4.38996 9.1732 4.7869L13.3874 8.85267C13.7988 9.24961 13.7793 9.87543 13.3439 10.2505C12.9084 10.6255 12.2219 10.6078 11.8104 10.2108L9.39479 7.88025L9.03849 19.3317C9.0215 19.8776 8.52228 20.3076 7.92344 20.2921C7.3246 20.2766 6.85292 19.8215 6.8699 19.2756L7.22621 7.82418L4.66953 10.0262C4.23408 10.4013 3.54754 10.3835 3.13611 9.98656ZM13.838 14.7995C14.2734 14.4245 14.96 14.4422 15.3714 14.8392L17.7871 17.1698L18.1434 5.7183C18.1604 5.17241 18.6596 4.74244 19.2584 4.75792C19.8573 4.77341 20.3289 5.22848 20.312 5.77437L19.9556 17.2258L22.5123 15.0238C22.9478 14.6487 23.6343 14.6665 24.0457 15.0634C24.4572 15.4604 24.4377 16.0862 24.0023 16.4613L19.5421 20.3028C19.333 20.4829 19.0539 20.5799 18.7664 20.5724C18.4788 20.565 18.2062 20.4537 18.0087 20.2631L13.7945 16.1973C13.3831 15.8004 13.4025 15.1746 13.838 14.7995Z" fill="#F4F4F4"/>
</g>
<defs>
<clipPath id="clip0_6_44">
<rect width="23.7332" height="26.0317" fill="white" transform="matrix(0.0310994 -0.999516 0.999666 0.0258462 0.210388 24.0495)"/>
</clipPath>
</defs>
</svg>
